<svg width="47" height="44" fill="none" xmlns="http://www.w3.org/2000/svg"><path d="M16.71 7.711l1.045.02c.033 0 .072-.012.098.002.297.156.638.098.947.196.362.116.728.221 1.083.357.858.328 1.651.77 2.347 1.377.69.602 1.318 1.255 1.8 2.046.227.374.442.756.612 1.152.154.362.281.735.38 1.115.062.23.077.47.163.694.027.07.047.143.06.217.104.64.105 1.288.068 1.93a6.292 6.292 0 01-.154 1.03c-.067.29-.15.576-.226.864a5.464 5.464 0 01-.971 1.95c-.33.428-.69.834-1.02 1.264a7.156 7.156 0 00-.975 1.691c-.15.372-.302.746-.392 1.13-.084.35-.238.69-.228 1.06a.399.399 0 01-.047.176c-.06.135-.068.272-.078.416-.017.238-.07.48-.18.687-.148.275-.397.404-.723.401-.926-.008-1.854.014-2.78-.012-.303-.009-.604.004-.906.009-.134.002-.27.009-.395-.057a.093.093 0 00-.1-.006c-.166.086-.35.063-.53.063-.92 0-1.84-.003-2.76.004-.172 0-.281-.05-.379-.197-.188-.285-.245-.6-.298-.928-.047-.291-.061-.591-.185-.87-.067-.152-.046-.328-.095-.494-.137-.466-.28-.927-.462-1.377-.352-.87-.88-1.625-1.495-2.33-.503-.575-.973-1.18-1.244-1.909a10.141 10.141 0 01-.41-1.356c-.075-.342-.118-.687-.175-1.03-.095-.567-.076-1.144 0-1.712.062-.47.147-.943.279-1.398a7.12 7.12 0 01.464-1.225c.296-.598.624-1.173 1.038-1.7a8.71 8.71 0 012.153-1.948c.374-.246.77-.456 1.184-.626.424-.17.852-.344 1.3-.434.552-.111 1.1-.272 1.675-.226.162.013.328-.01.492-.017m-4.12 19.772a.809.809 0 01-.137.237c-.13.154-.168.33-.162.532.013.42.312.729.733.729h7.412a.684.684 0 01.65.434.737.737 0 01-.137.81.695.695 0 01-.533.22 1893.38 1893.38 0 00-6.741-.003.743.743 0 00-.769.769c0 .42.326.73.769.73h5.794c.51 0 .867.451.75.945a.674.674 0 01-.632.514c-1.346.042-2.693.01-4.04.015a1.3 1.3 0 00-.688.167c-.104.063-.177.06-.259-.007a.605.605 0 00-.296-.127m2.958-13.594c.006.332-.105.653-.09.986.004.066-.008.131-.008.197v6.346m.492-7.844c0-.35.227-.57.454-.788.237-.23.52-.409.831-.522.18-.065.405-.099.586.032.194.139.241.34.18.569-.042.153-.16.244-.277.335-.182.144-.396.218-.607.304-.208.086-.435.064-.636.165a.406.406 0 01-.371-.019c-.143-.076-.255-.06-.357.062-.119.148-.251.155-.436.108a1.557 1.557 0 00-.766.01c-.147.038-.185.146-.156.276.08.357.098.72.098 1.084v6.23m-.494-7.866c-.032-.373-.263-.624-.533-.846-.232-.191-.485-.359-.77-.447-.18-.056-.39-.085-.569.033a.46.46 0 00-.215.472c.034.227.2.37.374.49.283.194.608.285.944.338.04.006.086.002.117.022.23.145.442.078.648-.051l.418.325M13.97 1.167c.003.148.026.295.069.437.076.265.088.549.129.824.007.046-.003.09.016.14.117.31.126.644.203.964.08.333.13.675.192 1.01.052.275.12.558.145.843.017.19.106.374.094.572m5.709-4.314c-.054.196-.088.412-.146.603-.09.294-.16.595-.237.893-.13.497-.273.992-.396 1.492-.056.228-.09.472-.192.698-.089.2-.11.431-.159.643m12.944 10.235c-.341-.037-.684 0-1.024-.007-.586-.012-1.171.008-1.755-.005a28.385 28.385 0 00-1.596.013c-.158.005-.314-.05-.473-.011m-21.683 0c-.388-.025-.774-.042-1.164.005-.314.038-.631-.041-.945-.03a21.31 21.31 0 01-1.735 0c-.321-.013-.644.022-.966.035m29.488-6.466c-.749.349-1.499.694-2.246 1.046-.593.279-1.183.564-1.775.847M3.385 8.726c.135-.04.2.085.293.133.621.33 1.225.69 1.84 1.034.564.316 1.126.638 1.692.95.066.037.144.054.216.08m22.629 12.735c-.207.013-.35-.14-.508-.226-.785-.427-1.553-.888-2.332-1.33-.39-.22-.788-.428-1.182-.642m-18.784.02l-2.917 1.645c-.3.169-.607.325-.905.496-.087.05-.172.028-.258.037M10.54 7.613c-.035-.214-.209-.344-.32-.51-.414-.606-.849-1.2-1.277-1.796-.334-.467-.677-.929-1-1.404-.063-.094-.122-.093-.202-.095m18.716.395c.08.256-.085.422-.228.589-.457.541-.922 1.075-1.377 1.618-.426.508-.84 1.026-1.265 1.535a.334.334 0 00-.077.258m-8.77 25.449c.018.22.11.427.258.589.193.209.358.43.473.691.15.342.38.608.747.73.435.144.857.108 1.238-.143.152-.1.276-.25.38-.408a.645.645 0 00.117-.434m-1.545 2.583v3.201a2.706 2.706 0 002.71 2.706l21.39-.038a2.056 2.056 0 002.056-2.06l-.005-3.128c.229-.145.363-.364.472-.61.16-.358.34-.706.524-1.053.078-.143.128-.3.147-.462.005-.04-.01-.095.024-.116.328-.214.415-.587.582-.9.458-.856.884-1.728 1.321-2.595.032-.063.076-.139.064-.2-.063-.332.093-.639.093-.963-.004-5.848-.004-11.696 0-17.544 0-.185-.013-.365-.072-.538a.214.214 0 01-.014-.12c.16-.72.126-1.443-.005-2.158-.2-1.082-1.169-1.997-2.256-2.156-.668-.098-1.345-.122-2.006.05a2.801 2.801 0 00-2.09 2.595c-.016.404-.002.81-.003 1.214 0 .162-.01.324.07.471.023.042.032.086.012.118-.125.208-.08.438-.08.66-.002 5.78-.003 11.56-.002 17.34 0 .212-.018.426.084.625.008.016.036.013.02.052-.122.304.044.558.17.807.485.972.96 1.95 1.495 2.894.182.321.32.65.463.984.17.4.416.764.587 1.165.051.11.125.209.216.29.11.103.243.196.19.387m-1.22-22.571c.075.05.067.127.067.202v12.719c0 .153-.023.308.136.405m2.142-13.208v13.09m-4.235-15.907c.529-.03 1.057-.004 1.586-.002.928.002 1.856-.025 2.783-.01.608.011 1.215-.01 1.822-.005m-6.157 18.741c.158-.011.315-.032.472-.032 1.72-.003 3.442-.003 5.163-.002.176 0 .352.002.523.05m-1.958 4.083a.673.673 0 00-.438-.135c-.472.002-.945.002-1.417 0a.77.77 0 00-.422.119" stroke="#000" stroke-linecap="round" stroke-linejoin="round"/></svg>