<svg width="44" height="44" fill="none" xmlns="http://www.w3.org/2000/svg"><path d="M4.72 11.845a.5.5 0 00.386-.922l-.386.922zM1.024 21.19l.5.036-.5-.036zm2.214 7.757l.45-.219-.45.219zm6.434 7.977l.339-.367-.339.367zm1.909 4.764l-.496-.063.496.063zM11.67 43l-.5.038a.5.5 0 00.5.462V43zm8.305 0v.5a.5.5 0 00.5-.5h-.5zm-.031-9.02l.5-.01-.5.01zm-.684-1.389l.37-.336-.37.336zm-8.37-9.14l.372-.334-.373.334zm-1.842-.793l.093-.491a.5.5 0 00-.43.121l.337.37zm-1.783 1.645a.5.5 0 00.899.439l-.899-.439zm28.756.49a.5.5 0 10.839-.544l-.84.543zm-.684-1.975l.42-.272a.5.5 0 00-.275-.207l-.145.479zM32.29 24.39l.377.328-.377-.328zm-6.547 7.123l-.365-.34.365.34zm-1.598 4.043l-.499.028.5-.028zm.035 7.441h-.5a.5.5 0 00.5.5v-.5zm8.525 0v.5a.5.5 0 00.478-.646l-.478.146zm4.112-8.292l.337.37-.337-.37zm6.117-9.653l.432.252-.432-.252zm.15-1.409l.5.004-.5-.004zM39.05 10.922a.5.5 0 00.387.922l-.387-.922zM17.86 3.25l-.278.415.355.238.29-.314-.367-.339zM23 1V.5 1zm6.93 6l-.495.072.062.428h.433V7zM32 7h.5v-.5H32V7zm0 2v.5h.5V9H32zm-6 0h-.5v.5h.5V9zm-6 0v.5h.5V9H20zm-8 0h-.5v.5h.5V9zm0-2v-.5h-.5V7h.5zm.05 0v.5h.458l.04-.456L12.05 7zm2.45-6l.278-.415-.377-.253-.288.351L14.5 1zm2.23 3.89l.446.226.2-.395-.367-.246-.279.415zm-1.67-1.12l.278-.415-.456-.307-.262.484.44.238zm-1 3.23l-.497-.051-.057.551h.554V7zm2.01 0v.5h.432l.063-.427L16.07 7zm1.33 5.4l-.354.354.007.006.007.006.34-.366zM16 11v-.5h-1.207l.853.854L16 11zm5.79 0l.434-.248-.144-.252h-.29v.5zm2.42 0v-.5h-.29l-.144.252.434.248zM30 11h.5v-.5H30v.5zm0 1.4l-.26.427.76.463v-.89H30zm-1.54.35h.5v-.026l-.5.026zm0 1.96l.354.354.146-.147v-.207h-.5zm-1.96 1.96l-.48.137.233.817.6-.6-.353-.354zm-1.4-.77l.354.354.007-.008.007-.008-.368-.338zm-1.4 1.4v.5h.207l.147-.146-.354-.354zm-2.8 0l-.427-.26-.463.76h.89v-.5zm-.35-1.54v.5h.026l-.026-.5zm-1.96 0l-.354.354.147.146h.207v-.5zm-1.96-1.96l-.135-.482-.823.231.604.605.354-.354zm-8.183 8.867a.5.5 0 10.99-.147l-.99.147zm.37-7.954l-.5-.01.5.01zm-.074-3.155l-.499-.024.5.024zm-3.637.174l.497-.057-.497.057zm.167 9.11l-.5.022.5-.022zm.324 1.592l-.366.34.366-.34zm6.853 9.279a.5.5 0 00.69-.723l-.69.723zm22.27-9.193a.5.5 0 10.989.147l-.99-.147zm.618-7.807l-.5.01.5-.01zm.074-3.155l.5-.024-.5.024zm3.638.174l-.497-.057.497.057zm-.167 9.11l.5.022-.5-.022zm-.324 1.592l.366.34-.366-.34zm-7.544 8.556a.5.5 0 00.691.723l-.69-.723zm-15.987-3.45a.5.5 0 00.964.266l-.964-.266zm.694-6.171l.5-.011-.5.01zm-3.24-1.533a.5.5 0 00.275.962l-.275-.962zm18.884.95a.5.5 0 10.34-.94l-.34.94zm-2.993 1.984l.496-.06-.496.06zm-.199 5.068a.5.5 0 00.944-.33l-.944.33zm-16.727-3.832a.5.5 0 00.944.329l-.944-.33zm.822-4.915l.5.004-.5-.004zm.018-2.626l-.497-.058.497.058zm-3.34-2.924a.5.5 0 10.341.94l-.34-.94zm25.922.94a.5.5 0 00.34-.94l-.34.94zm-3.014 1.985l.499-.042-.499.042zm.018 5.602l.5.011-.5-.011zm-.107 2.27a.5.5 0 10.942-.336l-.942.336zM5.106 10.923c-.718-.301-1.36-.495-1.922-.55-.567-.056-1.09.027-1.524.322-.433.295-.705.753-.87 1.304-.162.547-.23 1.222-.23 2.012h1c0-.744.065-1.31.19-1.726.122-.412.29-.639.473-.763.181-.124.447-.195.864-.154.42.04.957.194 1.633.477l.386-.922zM.56 14.01c0 2.434.137 4.785-.034 7.143l.997.072c.175-2.404.037-4.86.037-7.215h-1zm-.034 7.143c-.223 3.067 1.049 5.514 2.263 8.011l.9-.437c-1.241-2.55-2.366-4.75-2.166-7.502l-.997-.072zm2.263 8.011c1.61 3.312 4.01 5.794 6.545 8.127l.677-.735c-2.513-2.314-4.798-4.692-6.323-7.829l-.9.437zm6.545 8.127c.698.643 1.186 1.289 1.475 1.982.288.688.39 1.451.276 2.35l.992.127c.134-1.054.017-1.996-.345-2.862-.36-.863-.95-1.622-1.721-2.332l-.677.735zm1.75 4.333a3.11 3.11 0 00.011.74c.028.246.058.435.077.673l.997-.076c-.02-.255-.06-.521-.08-.708a2.155 2.155 0 01-.012-.503l-.992-.126zm.586 1.875h8.306v-1H11.67v1zm8.806-.5c0-3.056.03-6.045-.031-9.03l-1 .02c.061 2.972.03 5.94.03 9.01h1zm-.031-9.03c-.008-.343-.13-.675-.277-.955a3.777 3.777 0 00-.537-.76l-.74.672c.145.16.288.355.393.555.107.204.158.38.16.509l1-.021zm-.814-1.715c-2.79-3.073-5.61-6.057-8.368-9.138l-.745.667c2.753 3.075 5.609 6.1 8.373 9.143l.74-.672zm-8.369-9.138c-.656-.732-1.462-.826-2.12-.95l-.186.982c.742.14 1.173.201 1.562.636l.744-.668zm-2.55-.829c-.59.539-1.073 1.252-1.446 2.015l.899.439c.335-.686.75-1.284 1.221-1.715l-.674-.739zm28.149 1.96l-1.103-1.702-.84.544 1.104 1.702.839-.544zm-1.378-1.909c-.986-.3-1.743-.054-2.328.388a4.6 4.6 0 00-.713.695c-.1.117-.195.235-.282.343-.09.11-.17.209-.248.299l.756.655c.09-.105.181-.217.269-.325.09-.11.176-.217.266-.323.18-.212.36-.4.555-.546.362-.273.79-.425 1.434-.229l.291-.957zm-3.57 1.724c-2.11 2.43-4.33 4.746-6.535 7.11l.731.682c2.192-2.35 4.434-4.689 6.558-7.136l-.755-.656zm-6.535 7.11c-1.154 1.238-1.834 2.576-1.732 4.412l.999-.056c-.083-1.496.444-2.58 1.464-3.674l-.731-.682zm-1.732 4.412c.135 2.428.034 4.85.034 7.413h1c0-2.508.102-5.005-.035-7.468l-.999.055zm.534 7.913h8.525v-1H24.18v1zm9.003-.646c-.584-1.903-.19-3.274.62-4.445.845-1.223 2.113-2.2 3.351-3.332l-.675-.738c-1.147 1.05-2.568 2.155-3.499 3.502-.966 1.398-1.435 3.083-.753 5.306l.956-.293zm3.971-7.777c1.528-1.397 2.61-3.04 3.542-4.727.467-.842.9-1.703 1.332-2.549.433-.849.866-1.685 1.338-2.494l-.864-.504a51.82 51.82 0 00-1.365 2.543c-.435.854-.86 1.696-1.316 2.52-.91 1.645-1.928 3.182-3.341 4.473l.674.738zm6.212-9.77c.198-.34.245-.671.247-.959.001-.139-.008-.273-.015-.387a4.356 4.356 0 01-.014-.311l-1-.008c0 .138.008.272.016.385.008.119.014.217.013.312a.883.883 0 01-.11.464l.864.503zm.218-1.657c.024-3.214.013-6.428.013-9.638h-1c0 3.214.01 6.422-.013 9.63l1 .008zm.013-9.638c0-.79-.068-1.465-.231-2.012-.164-.55-.437-1.008-.87-1.303-.433-.296-.956-.38-1.523-.324-.563.056-1.204.25-1.923.551l.387.922c.675-.283 1.212-.436 1.633-.477.416-.041.682.03.864.154.182.124.35.35.474.763.123.415.189.982.189 1.726h1zM23 8.5a.5.5 0 01.354.146l.707-.707A1.5 1.5 0 0023 7.5v1zm.354.146A.5.5 0 0123.5 9h1a1.5 1.5 0 00-.44-1.06l-.706.706zM23.5 9a.5.5 0 01-.146.354l.707.707A1.5 1.5 0 0024.5 9h-1zm-.146.354A.5.5 0 0123 9.5v1a1.5 1.5 0 001.06-.44l-.706-.706zM23 9.5a.5.5 0 01-.354-.146l-.707.707A1.5 1.5 0 0023 10.5v-1zm-.354-.146A.5.5 0 0122.5 9h-1c0 .398.158.78.44 1.06l.706-.706zM22.5 9a.5.5 0 01.146-.354l-.707-.707A1.5 1.5 0 0021.5 9h1zm.146-.354A.5.5 0 0123 8.5v-1a1.5 1.5 0 00-1.06.44l.706.706zM18.227 3.59a6.497 6.497 0 012.168-1.544l-.4-.916a7.497 7.497 0 00-2.502 1.782l.734.678zm2.168-1.544A6.497 6.497 0 0123 1.5v-1a7.497 7.497 0 00-3.006.63l.401.915zM23 1.5c3.248 0 5.98 2.424 6.435 5.572l.99-.144C29.9 3.296 26.752.5 23 .5v1zm6.93 6H32v-1h-2.07v1zM31.5 7v2h1V7h-1zm.5 1.5h-6v1h6v-1zm-5.5.5a3.5 3.5 0 00-1.025-2.475l-.707.707A2.5 2.5 0 0125.5 9h1zm-1.025-2.475A3.5 3.5 0 0023 5.5v1a2.5 2.5 0 011.768.732l.707-.707zM23 5.5a3.5 3.5 0 00-2.475 1.025l.707.707A2.5 2.5 0 0123 6.5v-1zm-2.475 1.025A3.5 3.5 0 0019.5 9h1a2.5 2.5 0 01.732-1.768l-.707-.707zM20 8.5h-8v1h8v-1zm-7.5.5V7h-1v2h1zM12 7.5h.05v-1H12v1zm.548-.456a10.474 10.474 0 012.339-5.727l-.774-.634a11.476 11.476 0 00-2.561 6.273l.996.088zm1.674-5.629l3.36 2.25.556-.83-3.36-2.25-.556.83zm2.787 3.06l-1.67-1.12-.558.83 1.67 1.12.558-.83zm-2.389-.943a9.148 9.148 0 00-1.057 3.417l.994.102a8.15 8.15 0 01.943-3.043l-.88-.476zM14.06 7.5h2.01v-1h-2.01v1zm2.505-.427a6.34 6.34 0 01.61-1.957l-.89-.452a7.336 7.336 0 00-.71 2.263l.99.146zm1.189 4.973l-1.4-1.4-.708.708 1.4 1.4.708-.708zM16 11.5h5.79v-1H16v1zm5.356-.252c.328.574.963.952 1.644.952v-1a.912.912 0 01-.776-.448l-.868.496zM23 12.2c.681 0 1.316-.378 1.644-.952l-.868-.496A.912.912 0 0123 11.2v1zm1.21-.7H30v-1h-5.79v1zm5.29-.5v1.4h1V11h-1zm.76.973c-.434-.265-.814-.41-1.15-.43-.365-.023-.66.107-.86.335a1.212 1.212 0 00-.269.596 1.539 1.539 0 00-.021.268v.033l.5-.025.5-.026v.005c0 .001 0 .001 0 0v-.016a.44.44 0 01.007-.072.251.251 0 01.036-.104l-.004.003a.034.034 0 01-.007.004c-.003.001.012-.006.058-.004.104.007.32.062.69.287l.52-.854zm-2.3.777v1.96h1v-1.96h-1zm.146 1.606l-1.96 1.96.708.708 1.96-1.96-.708-.708zm-1.125 2.177c-.137-.478-.318-.837-.558-1.076a1.056 1.056 0 00-.856-.326 1.274 1.274 0 00-.605.234 1.574 1.574 0 00-.221.187l-.005.006a.04.04 0 00-.004.003l.368.339.368.339h-.001l-.001.002-.002.001c0 .001 0 0 0 0l.013-.012a.608.608 0 01.058-.046.294.294 0 01.123-.057h.009c.001 0 .019.007.05.039.07.069.189.244.302.641l.962-.274zm-2.235-.987l-1.4 1.4.708.708 1.4-1.4-.708-.708zM23.7 16.8h-2.8v1h2.8v-1zm-2.373.76c.265-.434.41-.814.43-1.15.023-.365-.107-.66-.335-.86a1.212 1.212 0 00-.596-.269 1.539 1.539 0 00-.268-.021h-.033l.025.5.026.5h-.006.017a.44.44 0 01.072.007c.067.012.098.03.104.035l-.003-.003a.034.034 0 01-.004-.007c-.001-.003.006.012.004.058-.007.104-.062.32-.287.69l.854.52zm-.777-2.3h-1.96v1h1.96v-1zm-1.606.146l-1.96-1.96-.708.708 1.96 1.96.708-.708zm-2.18-1.125c.479-.133.838-.313 1.078-.553.259-.259.354-.564.327-.857a1.284 1.284 0 00-.233-.606 1.605 1.605 0 00-.195-.231l-.341.366-.34.366h-.001v-.001l-.002-.001-.001-.002v.001a.305.305 0 01.117.198v.01c0 .002-.007.02-.038.05-.069.069-.243.186-.64.297l.27.963zm-7.328 8.24c-.38-2.566-.173-5.134-.119-7.798l-1-.02c-.052 2.583-.266 5.29.13 7.964l.99-.147zm-.119-7.798c.012-.55-.021-1.096-.048-1.614a15.226 15.226 0 01-.026-1.527l-1-.048c-.026.556 0 1.104.027 1.627.028.532.058 1.035.047 1.542l1 .02zm-.074-3.141c.037-.78-.108-1.453-.517-1.935-.419-.493-1.031-.69-1.71-.69v1c.493 0 .779.138.948.337.179.21.311.588.28 1.24l.999.048zM7.015 8.957c-1.392 0-2.578 1.326-2.405 2.832l.993-.114c-.108-.942.647-1.718 1.412-1.718v-1zM4.61 11.79c.17 1.485.18 2.977.161 4.493-.018 1.506-.064 3.046.003 4.582l.999-.044c-.065-1.499-.02-2.995-.002-4.526.018-1.522.01-3.068-.168-4.619l-.993.114zm.164 9.075c.004.105-.001.213-.008.353a3.972 3.972 0 00-.004.457c.023.354.13.736.469 1.1l.733-.68a.713.713 0 01-.204-.485c-.006-.1-.002-.207.005-.342.006-.127.015-.285.008-.447l-1 .044zm.457 1.91c1.278 1.374 2.362 2.908 3.495 4.465 1.125 1.546 2.296 3.108 3.723 4.474l.692-.723c-1.357-1.297-2.481-2.793-3.607-4.34-1.118-1.536-2.242-3.129-3.57-4.557l-.733.681zm30.478-.107c.395-2.675.182-5.381.13-7.964l-1 .02c.054 2.663.26 5.232-.12 7.797l.99.147zm.13-7.964c-.011-.507.019-1.01.047-1.541a16.22 16.22 0 00.026-1.628l-.999.048c.024.5.002 1.002-.026 1.527-.027.518-.06 1.063-.048 1.614l1-.02zm.073-3.17c-.032-.65.1-1.028.28-1.239.169-.199.455-.337.949-.337v-1c-.68 0-1.292.197-1.712.69-.41.482-.554 1.155-.516 1.935l.999-.048zm1.229-1.576c.765 0 1.52.776 1.412 1.718l.993.114c.173-1.506-1.014-2.832-2.405-2.832v1zm1.412 1.718c-.178 1.551-.186 3.097-.168 4.619.018 1.53.063 3.027-.002 4.526l1 .044c.066-1.536.02-3.076.002-4.582-.018-1.516-.009-3.008.161-4.493l-.993-.114zm-.17 9.145c-.007.162.002.32.008.447.007.135.011.242.005.342a.714.714 0 01-.204.485l.733.68a1.71 1.71 0 00.469-1.1c.01-.166.003-.326-.004-.457-.007-.14-.013-.248-.008-.353l-.999-.044zm-.19 1.273c-1.33 1.428-2.453 3.021-3.571 4.557-1.126 1.547-2.25 3.043-3.607 4.34l.691.723c1.428-1.366 2.599-2.928 3.724-4.474 1.133-1.557 2.217-3.09 3.495-4.465l-.732-.68zm-22.201 5.713c.304-1.105.369-2.21.356-3.286a41.066 41.066 0 00-.06-1.6c-.027-.53-.055-1.047-.067-1.562l-1 .022c.012.533.041 1.067.068 1.59.027.528.053 1.046.059 1.562.013 1.032-.051 2.032-.32 3.008l.964.266zm.23-6.448c-.01-.4-.095-.77-.296-1.078a1.564 1.564 0 00-.86-.637c-.671-.214-1.564-.099-2.584.193l.275.962c.993-.284 1.636-.32 2.005-.202a.568.568 0 01.326.23c.07.106.128.277.134.554l1-.022zm15.484-1.511c-1.21-.44-2.305-.525-3.055.057-.754.586-.925 1.662-.774 2.925l.992-.118c-.142-1.197.086-1.776.395-2.017.314-.243.949-.325 2.102.093l.34-.94zm-3.83 2.982c.092.763.023 1.523-.005 2.383-.026.833-.01 1.73.303 2.626l.944-.33c-.25-.713-.273-1.455-.247-2.264.025-.784.102-1.67-.002-2.533l-.992.118zm-15.485 1.506c.315-.902.4-1.807.414-2.682.007-.438-.004-.874-.016-1.299-.012-.428-.024-.845-.02-1.259l-1-.009c-.004.436.009.872.02 1.296.012.427.023.843.017 1.255-.013.824-.094 1.61-.359 2.369l.944.329zm.378-5.24c.004-.447-.018-.912-.026-1.332a9.047 9.047 0 01.04-1.24l-.993-.116a10.02 10.02 0 00-.047 1.377c.01.457.03.874.026 1.302l1 .01zm.014-2.572c.148-1.264-.025-2.34-.78-2.925-.75-.582-1.844-.497-3.056-.057l.341.94c1.153-.418 1.788-.336 2.102-.092.31.24.54.821.4 2.018l.993.116zm22.427-2.982c-1.21-.438-2.29-.527-3.036.058-.741.58-.923 1.65-.817 2.91l.997-.085c-.102-1.207.126-1.794.437-2.038.307-.24.923-.323 2.078.095l.34-.94zm-3.853 2.967c.154 1.82.058 3.66.016 5.549l1 .022c.04-1.846.14-3.765-.02-5.655l-.996.084zm.016 5.549c-.018.811.135 1.557.393 2.281l.942-.336c-.226-.634-.35-1.257-.335-1.923l-1-.022z" fill="#000"/></svg>