<svg width="47" height="44" viewBox="0 0 47 44" fill="none" xmlns="http://www.w3.org/2000/svg">
<path d="M16.71 7.71116L17.7547 7.7308C17.7876 7.7308 17.8266 7.71926 17.8529 7.73276C18.1502 7.88867 18.4913 7.83097 18.7996 7.92918C19.162 8.04458 19.5281 8.15015 19.8829 8.28617C20.7405 8.61419 21.5343 9.0554 22.2301 9.66257C22.9207 10.2653 23.5483 10.9184 24.0298 11.7093C24.2574 12.0829 24.4717 12.465 24.6421 12.8615C24.7962 13.2232 24.9234 13.5959 25.0227 13.9764C25.0835 14.2065 25.099 14.4468 25.1852 14.6703C25.2123 14.7402 25.2322 14.8128 25.2446 14.8868C25.3494 15.5274 25.3499 16.1751 25.3131 16.8179C25.2904 17.1643 25.239 17.5082 25.1592 17.8461C25.0924 18.1378 25.0089 18.4231 24.9326 18.7113C24.7431 19.4196 24.413 20.0825 23.962 20.6605C23.6315 21.0895 23.2721 21.4953 22.9416 21.9255C22.5412 22.442 22.2134 23.0109 21.9674 23.6164C21.8174 23.9876 21.6649 24.362 21.5745 24.7458C21.4911 25.0959 21.3374 25.4367 21.3472 25.8067C21.3451 25.8681 21.3289 25.9282 21.2998 25.9822C21.2394 26.1173 21.2318 26.2543 21.2217 26.3979C21.205 26.6361 21.1517 26.8772 21.0415 27.0854C20.8942 27.3599 20.645 27.4893 20.3189 27.4863C19.3926 27.4777 18.4655 27.5003 17.5398 27.4738C17.2359 27.465 16.9351 27.4777 16.6329 27.4829C16.4986 27.4851 16.3628 27.4917 16.2376 27.4262C16.2233 27.4158 16.2064 27.4097 16.1887 27.4086C16.1711 27.4076 16.1536 27.4116 16.1382 27.4203C15.9719 27.506 15.7873 27.4831 15.6078 27.4831C14.6879 27.4831 13.7681 27.4797 12.8481 27.4866C12.6763 27.4866 12.567 27.4375 12.4693 27.2901C12.281 27.0046 12.2238 26.6908 12.1705 26.3618C12.1243 26.0709 12.1099 25.7709 11.9859 25.4912C11.9191 25.3404 11.9402 25.1644 11.8911 24.9979C11.7539 24.5315 11.611 24.0706 11.429 23.6208C11.0769 22.7507 10.5498 21.9957 9.93428 21.2918C9.4312 20.7163 8.96103 20.1113 8.69046 19.3823C8.52209 18.9404 8.38484 18.4872 8.2797 18.0261C8.20457 17.6841 8.16185 17.3386 8.10489 16.9966C8.01012 16.4292 8.02878 15.852 8.10489 15.2836C8.16701 14.8132 8.2522 14.341 8.3838 13.8861C8.5046 13.4687 8.65118 13.0535 8.84784 12.6611C9.1437 12.0631 9.47221 11.4883 9.8864 10.9602C10.4941 10.186 11.2164 9.54423 12.0394 9.01317C12.4132 8.76709 12.8096 8.55728 13.2233 8.38659C13.6468 8.21669 14.075 8.04286 14.5231 7.95275C15.075 7.84202 15.6223 7.68096 16.1976 7.72712C16.3604 7.74013 16.5261 7.71705 16.6903 7.71042M12.5705 27.482C12.5385 27.5681 12.492 27.6482 12.4331 27.7187C12.3032 27.8726 12.2649 28.0486 12.271 28.2507C12.284 28.6713 12.5828 28.9799 13.0044 28.9799H20.4157C20.5555 28.977 20.6928 29.0171 20.8092 29.0947C20.9255 29.1722 21.0153 29.2836 21.0664 29.4137C21.1877 29.7064 21.1317 30.0155 20.9291 30.224C20.7818 30.3754 20.6149 30.4449 20.3961 30.4449C18.1491 30.4389 15.902 30.4376 13.6548 30.441C13.2087 30.441 12.886 30.7638 12.886 31.2097C12.886 31.63 13.2119 31.9392 13.6548 31.9392H19.4491C19.9588 31.9392 20.3161 32.3912 20.1982 32.8854C20.1633 33.0279 20.0828 33.1552 19.9689 33.2478C19.8551 33.3404 19.7141 33.3933 19.5675 33.3985C18.2208 33.441 16.8736 33.4096 15.5266 33.4138C15.2792 33.4138 15.0466 33.4565 14.8392 33.5807C14.7346 33.6436 14.6622 33.6409 14.5802 33.5743C14.4947 33.5058 14.3923 33.4619 14.2838 33.4471M17.2425 19.8535C17.2484 20.1852 17.1374 20.5063 17.1528 20.839C17.1558 20.9046 17.1443 20.9704 17.1443 21.0355C17.1443 23.1512 17.1443 25.2669 17.1443 27.3825M17.6363 19.538C17.6363 19.1884 17.8632 18.9686 18.09 18.7499C18.3271 18.5191 18.6103 18.3411 18.9211 18.2277C19.1001 18.1633 19.3262 18.1294 19.5069 18.2598C19.7006 18.399 19.7483 18.6008 19.6862 18.8287C19.6447 18.9817 19.5276 19.0725 19.4104 19.1641C19.228 19.308 19.0137 19.3816 18.8028 19.4678C18.5948 19.5537 18.3682 19.5324 18.1666 19.6328C18.05 19.691 17.9105 19.6758 17.7956 19.6141C17.6527 19.5375 17.5405 19.5535 17.4394 19.6762C17.3203 19.8236 17.188 19.8312 17.0033 19.7835C16.7554 19.7197 16.4914 19.7305 16.2368 19.7946C16.0895 19.8317 16.0519 19.9404 16.0809 20.0698C16.1617 20.4275 16.1791 20.7897 16.1791 21.1545C16.1776 23.2307 16.1776 25.3069 16.1791 27.3832M15.685 19.5184C15.6526 19.1447 15.4218 18.8943 15.152 18.6718C14.9204 18.4808 14.6671 18.3131 14.3818 18.225C14.2018 18.1695 13.9926 18.1395 13.8134 18.2583C13.6477 18.3683 13.5693 18.5331 13.5983 18.7295C13.6315 18.9566 13.7972 19.1007 13.972 19.2206C14.2551 19.4138 14.5802 19.5051 14.9163 19.5584C14.9558 19.5645 15.0025 19.5601 15.0334 19.5798C15.2622 19.7254 15.4753 19.6578 15.6813 19.5289L16.0987 19.854M13.97 1.16699C13.9728 1.31495 13.9959 1.46182 14.0385 1.60353C14.1148 1.86894 14.1274 2.15252 14.1676 2.42849C14.1745 2.4744 14.1649 2.51786 14.1836 2.5677C14.3007 2.87804 14.3098 3.21245 14.3866 3.53163C14.4672 3.86529 14.5163 4.20706 14.5794 4.54171C14.6312 4.81743 14.6982 5.09954 14.724 5.38483C14.7412 5.57585 14.8303 5.75852 14.8178 5.9569M20.5268 1.64282C20.4733 1.83924 20.4394 2.05481 20.381 2.24583C20.2904 2.54046 20.2216 2.84122 20.1441 3.13855C20.0144 3.63647 19.8705 4.13095 19.748 4.63133C19.692 4.85942 19.6574 5.10323 19.5565 5.32886C19.4672 5.52896 19.4468 5.76 19.3972 5.97213M32.3413 16.2068C31.9996 16.1702 31.6573 16.2068 31.3165 16.2004C30.7312 16.1876 30.1458 16.208 29.5622 16.1952C29.0289 16.1839 28.4974 16.1891 27.9663 16.2077C27.8082 16.2131 27.6518 16.1586 27.4932 16.1969M5.80955 16.1969C5.42163 16.1724 5.03566 16.1552 4.64602 16.2019C4.33249 16.2397 4.01453 16.1608 3.70051 16.1729C3.12157 16.1955 2.54459 16.1974 1.96564 16.1729C1.64474 16.1589 1.32188 16.1942 1 16.2073M30.4885 9.74139C29.7394 10.0898 28.9893 10.4355 28.2416 10.7868C27.6487 11.0657 27.0587 11.3515 26.4672 11.6339M3.38507 8.72593C3.51961 8.68567 3.58591 8.81063 3.67798 8.85949C4.29915 9.18923 4.90338 9.54965 5.51719 9.89289C6.08189 10.2089 6.64365 10.5312 7.20983 10.8433C7.27636 10.8801 7.3537 10.8973 7.42589 10.9236M30.0548 23.6579C29.848 23.6706 29.7049 23.5177 29.5473 23.432C28.7616 23.0048 27.9936 22.5442 27.2148 22.102C26.8252 21.8811 26.4272 21.6736 26.0329 21.46M7.24864 21.4796C6.2762 22.0288 5.30385 22.5772 4.33157 23.1249C4.03179 23.2935 3.72513 23.4499 3.42682 23.6211C3.33991 23.6702 3.25496 23.6486 3.16902 23.6579M10.5402 7.61272C10.5049 7.39887 10.3313 7.26899 10.2196 7.10375C9.80588 6.49658 9.37105 5.90388 8.94286 5.30653C8.6087 4.84003 8.26571 4.3782 7.94383 3.90262C7.88048 3.80908 7.82107 3.81031 7.74078 3.80834M26.4572 4.20265C26.537 4.45922 26.3715 4.62471 26.2294 4.79191C25.7724 5.33329 25.3069 5.8673 24.852 6.41015C24.4262 6.91838 24.0113 7.4357 23.5875 7.94541C23.5576 7.9807 23.5353 8.0218 23.5221 8.06612C23.5088 8.11045 23.5048 8.15703 23.5104 8.20296M14.7387 33.6517C14.7572 33.8714 14.8482 34.0787 14.9975 34.2409C15.1895 34.4496 15.3553 34.6708 15.4697 34.9323C15.6197 35.2743 15.8507 35.5402 16.2173 35.662C16.6516 35.8061 17.0737 35.7698 17.4552 35.5186C17.6067 35.4189 17.7314 35.2699 17.8348 35.1113C17.922 34.9775 17.9696 34.837 17.9519 34.6767M16.4067 37.2601V40.461C16.4067 40.8168 16.4769 41.169 16.6132 41.4977C16.7495 41.8263 16.9492 42.1248 17.201 42.3761C17.4528 42.6275 17.7517 42.8267 18.0806 42.9624C18.4094 43.0981 18.7618 43.1676 19.1176 43.167L40.5063 43.1288C40.7767 43.1288 41.0445 43.0754 41.2942 42.9718C41.544 42.8682 41.7709 42.7164 41.962 42.5251C42.153 42.3337 42.3045 42.1066 42.4077 41.8566C42.5109 41.6067 42.5638 41.3389 42.5634 41.0685L42.5581 37.9412C42.7866 37.796 42.9211 37.577 43.0303 37.3316C43.1901 36.9733 43.3695 36.6246 43.554 36.2785C43.6323 36.1351 43.6824 35.9779 43.7014 35.8156C43.7061 35.7753 43.6906 35.7213 43.7246 35.6998C44.0526 35.4864 44.1401 35.1127 44.307 34.8002C44.7647 33.9437 45.1914 33.0721 45.6282 32.2051C45.6599 32.1424 45.7037 32.0662 45.6921 32.0044C45.6291 31.6729 45.7847 31.3664 45.7847 31.0418C45.7813 25.1941 45.7813 19.3462 45.7847 13.4983C45.7847 13.3131 45.772 13.1334 45.7127 12.9596C45.697 12.922 45.6923 12.8807 45.6993 12.8406C45.8595 12.1206 45.8254 11.3967 45.6935 10.6823C45.4939 9.60008 44.5253 8.68543 43.4378 8.52616C42.7697 8.42847 42.093 8.40416 41.4318 8.5757C40.8515 8.72743 40.3353 9.06143 39.959 9.52856C39.5827 9.99568 39.3663 10.5712 39.3417 11.1706C39.3261 11.5748 39.34 11.9808 39.3389 12.385C39.3389 12.547 39.3298 12.7091 39.4083 12.8563C39.4315 12.898 39.4405 12.9422 39.4213 12.9742C39.2961 13.1825 39.3407 13.4119 39.3405 13.6332C39.3386 19.4137 39.3381 25.1941 39.3389 30.9745C39.3389 31.1865 39.3213 31.4004 39.4227 31.5995C39.4306 31.6148 39.459 31.6116 39.443 31.6509C39.3208 31.9549 39.4873 32.2086 39.6123 32.4579C40.0984 33.4302 40.5728 34.4085 41.1077 35.3516C41.2899 35.6734 41.4279 36.0014 41.5707 36.336C41.7418 36.7353 41.9874 37.0999 42.1581 37.5011C42.2095 37.6113 42.283 37.7097 42.374 37.7902C42.4835 37.8937 42.6166 37.9868 42.5632 38.1775M41.3436 15.6067C41.4191 15.6565 41.4112 15.7341 41.4112 15.8091C41.4112 16.0679 41.4112 16.3265 41.4112 16.5851C41.4112 20.5668 41.4112 24.5479 41.4112 28.5282C41.4112 28.6808 41.3881 28.8364 41.5471 28.9331M43.6886 15.7248V28.8151M39.4544 12.9079C39.9829 12.8774 40.5114 12.9042 41.0399 12.9056C41.9678 12.9082 42.8958 12.8806 43.8232 12.8968C44.4311 12.9073 45.0379 12.8869 45.6451 12.8911M39.488 31.6321C39.6456 31.6208 39.803 31.6 39.9604 31.5998C41.6809 31.5974 43.4017 31.5968 45.1228 31.5979C45.299 31.5979 45.4747 31.5995 45.6458 31.6488M43.6885 35.7313C43.5597 35.6292 43.4107 35.5949 43.2498 35.5956C42.7775 35.5975 42.305 35.5982 41.8328 35.5956C41.6836 35.5937 41.5371 35.6351 41.411 35.7149" stroke="black" stroke-linecap="round" stroke-linejoin="round"/>
</svg>
