<svg width="44" height="44" viewBox="0 0 44 44" fill="none" xmlns="http://www.w3.org/2000/svg">
<path d="M4.71959 11.8451C4.97424 11.9519 5.26726 11.832 5.37406 11.5774C5.48086 11.3227 5.361 11.0297 5.10634 10.9229L4.71959 11.8451ZM1.02447 21.1899L1.52315 21.2262L1.52316 21.2262L1.02447 21.1899ZM3.23837 28.9468L3.68807 28.7283L3.68806 28.7283L3.23837 28.9468ZM9.67223 36.9244L10.0109 36.5566L10.0109 36.5566L9.67223 36.9244ZM11.5808 41.6879L11.0848 41.6248L11.0848 41.6249L11.5808 41.6879ZM11.6704 43L11.1718 43.0385C11.192 43.299 11.4092 43.5 11.6704 43.5V43ZM19.9759 43V43.5C20.2521 43.5 20.4759 43.2762 20.4759 43H19.9759ZM19.9447 33.9804L20.4446 33.9701L20.4446 33.97L19.9447 33.9804ZM19.2612 32.5913L19.6314 32.2552L19.6314 32.2552L19.2612 32.5913ZM10.8901 23.4509L11.2626 23.1174L11.2625 23.1173L10.8901 23.4509ZM9.04895 22.6578L9.14197 22.1666C8.98741 22.1373 8.8281 22.1825 8.71191 22.2885L9.04895 22.6578ZM7.26611 24.3031C7.14492 24.5512 7.24783 24.8506 7.49596 24.9718C7.74408 25.093 8.04348 24.9901 8.16466 24.742L7.26611 24.3031ZM36.0217 24.7923C36.1718 25.0241 36.4814 25.0902 36.7132 24.9401C36.9449 24.7899 37.011 24.4803 36.8609 24.2485L36.0217 24.7923ZM35.3379 22.8176L35.7576 22.5457C35.6934 22.4467 35.5962 22.3735 35.4833 22.3392L35.3379 22.8176ZM32.2899 24.3912L32.6675 24.719L32.6676 24.7188L32.2899 24.3912ZM25.7434 31.5141L25.3777 31.1731L25.3776 31.1733L25.7434 31.5141ZM24.1455 35.5573L23.6463 35.585L23.6463 35.585L24.1455 35.5573ZM24.1805 42.9984H23.6805C23.6805 43.2745 23.9044 43.4984 24.1805 43.4984V42.9984ZM32.7049 42.9984V43.4984C32.8635 43.4984 33.0127 43.4231 33.1069 43.2956C33.2012 43.1681 33.2294 43.0034 33.1829 42.8517L32.7049 42.9984ZM36.8168 34.7063L37.1541 35.0754L37.1542 35.0754L36.8168 34.7063ZM42.9344 25.0527L43.3663 25.3045L43.3665 25.3043L42.9344 25.0527ZM43.0844 23.6441L43.5843 23.6478L43.5843 23.6477L43.0844 23.6441ZM39.0503 10.922C38.7957 11.0288 38.6758 11.3218 38.7826 11.5765C38.8894 11.8311 39.1824 11.951 39.4371 11.8442L39.0503 10.922ZM17.86 3.25L17.5818 3.66545L17.9372 3.90343L18.2273 3.58922L17.86 3.25ZM23 1L23 0.5L23 0.5L23 1ZM29.93 7L29.4351 7.07153L29.4971 7.5H29.93V7ZM32 7H32.5V6.5H32V7ZM32 9V9.5H32.5V9H32ZM26 9H25.5V9.5H26V9ZM20 9V9.5H20.5V9H20ZM12 9H11.5V9.5H12V9ZM12 7V6.5H11.5V7H12ZM12.05 7V7.5H12.5079L12.5481 7.04388L12.05 7ZM14.5 1L14.7782 0.584546L14.401 0.331927L14.1132 0.683127L14.5 1ZM16.73 4.89L17.1758 5.11635L17.3763 4.72143L17.0085 4.47474L16.73 4.89ZM15.06 3.77L15.3385 3.35474L14.8818 3.04845L14.6202 3.53215L15.06 3.77ZM14.06 7L13.5627 6.94855L13.5056 7.5H14.06V7ZM16.07 7V7.5H16.502L16.5647 7.07256L16.07 7ZM17.4 12.4L17.0464 12.7536L17.053 12.7601L17.0598 12.7664L17.4 12.4ZM16 11V10.5H14.7929L15.6464 11.3536L16 11ZM21.79 11L22.2241 10.7519L22.0802 10.5H21.79V11ZM24.21 11V10.5H23.9198L23.7759 10.7519L24.21 11ZM30 11H30.5V10.5H30V11ZM30 12.4L29.74 12.8271L30.5 13.2897V12.4H30ZM28.46 12.75H28.96V12.7369L28.9593 12.7237L28.46 12.75ZM28.46 14.71L28.8136 15.0636L28.96 14.9171V14.71H28.46ZM26.5 16.67L26.0192 16.8074L26.2527 17.6244L26.8536 17.0236L26.5 16.67ZM25.1 15.9L25.4536 16.2536L25.4611 16.246L25.4683 16.2382L25.1 15.9ZM23.7 17.3V17.8H23.9071L24.0536 17.6536L23.7 17.3ZM20.9 17.3L20.4729 17.04L20.0103 17.8H20.9V17.3ZM20.55 15.76V16.26H20.5632L20.5763 16.2593L20.55 15.76ZM18.59 15.76L18.2364 16.1136L18.3829 16.26H18.59V15.76ZM16.63 13.8L16.4952 13.3185L15.6719 13.549L16.2764 14.1536L16.63 13.8ZM8.44704 22.6669C8.48746 22.9401 8.74167 23.1287 9.01484 23.0883C9.28801 23.0479 9.47669 22.7937 9.43627 22.5205L8.44704 22.6669ZM8.81733 14.7129L8.31743 14.7026L8.31743 14.7027L8.81733 14.7129ZM8.74338 11.558L8.24396 11.534L8.24395 11.5341L8.74338 11.558ZM5.10635 11.7323L5.60309 11.6753L5.60309 11.6753L5.10635 11.7323ZM5.27336 20.8419L4.77383 20.8636L4.77384 20.8637L5.27336 20.8419ZM5.59736 22.4339L5.23102 22.7742L5.23132 22.7745L5.59736 22.4339ZM12.4495 31.7126C12.6491 31.9035 12.9656 31.8965 13.1565 31.697C13.3473 31.4974 13.3403 31.1809 13.1408 30.99L12.4495 31.7126ZM34.7195 22.5205C34.6791 22.7937 34.8677 23.0479 35.1409 23.0883C35.4141 23.1287 35.6683 22.9401 35.7087 22.6669L34.7195 22.5205ZM35.3384 14.7129L34.8385 14.7232L34.8385 14.7232L35.3384 14.7129ZM35.4124 11.558L35.9118 11.534L35.9118 11.5336L35.4124 11.558ZM39.0496 11.7323L38.5529 11.6753L38.5529 11.6753L39.0496 11.7323ZM38.8826 20.8419L39.3821 20.8637L39.3822 20.8636L38.8826 20.8419ZM38.5586 22.4339L38.9247 22.7745L38.925 22.7742L38.5586 22.4339ZM31.0152 30.99C30.8157 31.1809 30.8087 31.4974 30.9995 31.697C31.1904 31.8965 31.5069 31.9035 31.7065 31.7126L31.0152 30.99ZM15.0277 27.5402C14.9544 27.8064 15.1108 28.0817 15.377 28.155C15.6432 28.2283 15.9185 28.0719 15.9918 27.8057L15.0277 27.5402ZM15.7215 21.3688L16.2214 21.3578L16.2214 21.3578L15.7215 21.3688ZM12.4817 19.8361C12.2162 19.912 12.0625 20.1888 12.1384 20.4543C12.2143 20.7198 12.4911 20.8735 12.7566 20.7976L12.4817 19.8361ZM31.3655 20.7868C31.6251 20.881 31.9119 20.7469 32.0061 20.4873C32.1002 20.2277 31.9661 19.9409 31.7065 19.8468L31.3655 20.7868ZM28.373 22.77L28.8695 22.7107L28.8695 22.7107L28.373 22.77ZM28.1742 27.8381C28.2655 28.0988 28.5507 28.2361 28.8114 28.1449C29.072 28.0536 29.2093 27.7684 29.1181 27.5078L28.1742 27.8381ZM11.447 24.0055C11.3561 24.2662 11.4938 24.5513 11.7545 24.6422C12.0153 24.7331 12.3004 24.5954 12.3913 24.3347L11.447 24.0055ZM12.269 19.0908L12.769 19.0954L12.769 19.0952L12.269 19.0908ZM12.2865 16.4654L11.7899 16.4073L11.7899 16.4073L12.2865 16.4654ZM8.94707 13.5413C8.6875 13.6355 8.55346 13.9223 8.64768 14.1819C8.74191 14.4414 9.02871 14.5755 9.28828 14.4812L8.94707 13.5413ZM34.8688 14.4813C35.1284 14.5754 35.4151 14.4413 35.5093 14.1817C35.6034 13.9221 35.4692 13.6353 35.2096 13.5412L34.8688 14.4813ZM31.8554 16.4661L32.3536 16.4241L32.3536 16.424L31.8554 16.4661ZM31.8726 22.0679L32.3725 22.0791L32.3725 22.079L31.8726 22.0679ZM31.7658 24.338C31.8585 24.5981 32.1445 24.7338 32.4046 24.641C32.6647 24.5483 32.8004 24.2623 32.7077 24.0022L31.7658 24.338ZM5.10634 10.9229C4.38816 10.6217 3.74665 10.4275 3.18409 10.3723C2.61653 10.3167 2.09333 10.3999 1.6597 10.6955C1.22728 10.9904 0.954979 11.4482 0.790753 11.999C0.627583 12.5462 0.559695 13.2214 0.559695 14.0112H1.5597C1.5597 13.2668 1.62515 12.7003 1.74907 12.2847C1.87193 11.8726 2.04047 11.6462 2.22304 11.5218C2.40441 11.3981 2.67037 11.3268 3.08654 11.3676C3.5077 11.4088 4.04449 11.562 4.71959 11.8451L5.10634 10.9229ZM0.559695 14.0112C0.559695 16.4445 0.697192 18.7956 0.525788 21.1537L1.52316 21.2262C1.69792 18.8219 1.5597 16.3655 1.5597 14.0112H0.559695ZM0.525792 21.1536C0.302514 24.2215 1.57477 26.6681 2.78868 29.1654L3.68806 28.7283C2.44804 26.1773 1.32283 23.9787 1.52315 21.2262L0.525792 21.1536ZM2.78867 29.1654C4.39826 32.4773 6.799 34.9592 9.3336 37.2923L10.0109 36.5566C7.49765 34.2431 5.21261 31.8652 3.68807 28.7283L2.78867 29.1654ZM9.33357 37.2923C10.0319 37.9352 10.5202 38.5808 10.8093 39.2736C11.0966 39.962 11.1992 40.7253 11.0848 41.6248L12.0768 41.751C12.2108 40.6971 12.0939 39.7552 11.7322 38.8885C11.3723 38.0261 10.7821 37.2666 10.0109 36.5566L9.33357 37.2923ZM11.0848 41.6249C11.0517 41.8851 11.0701 42.1377 11.0953 42.3645C11.1226 42.6112 11.1535 42.8005 11.1718 43.0385L12.1689 42.9615C12.1492 42.7073 12.1098 42.4406 12.0892 42.2543C12.0664 42.0482 12.059 41.8908 12.0768 41.751L11.0848 41.6249ZM11.6704 43.5H19.9759V42.5H11.6704V43.5ZM20.4759 43C20.4759 39.9439 20.5065 36.955 20.4446 33.9701L19.4448 33.9908C19.5064 36.962 19.4759 39.9302 19.4759 43H20.4759ZM20.4446 33.97C20.4374 33.6274 20.3154 33.2946 20.1683 33.0154C20.0186 32.7312 19.8244 32.4678 19.6314 32.2552L18.891 32.9274C19.036 33.0872 19.1787 33.2824 19.2837 33.4816C19.3914 33.686 19.4421 33.8616 19.4448 33.9908L20.4446 33.97ZM19.6314 32.2552C16.8409 29.1819 14.0211 26.1984 11.2626 23.1174L10.5176 23.7844C13.2706 26.8593 16.127 29.8832 18.891 32.9274L19.6314 32.2552ZM11.2625 23.1173C10.6064 22.3851 9.79958 22.2911 9.14197 22.1666L8.95594 23.1491C9.6979 23.2896 10.1288 23.3505 10.5177 23.7846L11.2625 23.1173ZM8.71191 22.2885C8.12183 22.827 7.63893 23.5398 7.26611 24.3031L8.16466 24.742C8.49956 24.0563 8.91426 23.4576 9.38599 23.0272L8.71191 22.2885ZM36.8609 24.2485L35.7576 22.5457L34.9183 23.0895L36.0217 24.7923L36.8609 24.2485ZM35.4833 22.3392C34.497 22.0395 33.7404 22.2848 33.155 22.727C32.8759 22.9378 32.6417 23.188 32.4421 23.4218C32.3421 23.5391 32.2471 23.6567 32.1598 23.7645C32.0708 23.8745 31.9904 23.9735 31.9122 24.0636L32.6676 24.7188C32.7587 24.6138 32.8495 24.5018 32.9369 24.3938C33.0261 24.2837 33.1127 24.1765 33.2028 24.0709C33.3835 23.8592 33.5633 23.6718 33.7578 23.5249C34.1197 23.2515 34.5486 23.1003 35.1925 23.296L35.4833 22.3392ZM31.9123 24.0634C29.8037 26.4926 27.5826 28.8087 25.3777 31.1731L26.1091 31.8551C28.3012 29.5044 30.5434 27.166 32.6675 24.719L31.9123 24.0634ZM25.3776 31.1733C24.2239 32.4114 23.5443 33.7489 23.6463 35.585L24.6448 35.5295C24.5616 34.0327 25.0893 32.9495 26.1092 31.855L25.3776 31.1733ZM23.6463 35.585C23.7813 38.0131 23.6805 40.4344 23.6805 42.9984H24.6805C24.6805 40.4903 24.7818 37.9935 24.6448 35.5295L23.6463 35.585ZM24.1805 43.4984H32.7049V42.4984H24.1805V43.4984ZM33.1829 42.8517C32.5991 40.9486 32.9937 39.5781 33.8029 38.4072C34.6482 37.1843 35.9162 36.2068 37.1541 35.0754L36.4795 34.3373C35.3316 35.3864 33.911 36.4921 32.9803 37.8386C32.0137 39.2372 31.5451 40.9224 32.2268 43.145L33.1829 42.8517ZM37.1542 35.0754C38.6824 33.6785 39.7631 32.0346 40.6965 30.3479C41.1625 29.5058 41.5962 28.6446 42.0279 27.7992C42.4614 26.9502 42.8943 26.1143 43.3663 25.3045L42.5024 24.8009C42.015 25.637 41.5711 26.4948 41.1373 27.3444C40.7016 28.1976 40.2774 29.04 39.8215 29.8637C38.9111 31.5088 37.8925 33.0458 36.4795 34.3373L37.1542 35.0754ZM43.3665 25.3043C43.5643 24.9645 43.6105 24.634 43.613 24.3463C43.6142 24.2075 43.6052 24.0726 43.5977 23.9592C43.5899 23.8396 43.5836 23.7422 43.5843 23.6478L42.5844 23.6403C42.5833 23.7776 42.5925 23.912 42.5999 24.0248C42.6077 24.1438 42.6139 24.242 42.613 24.3374C42.6114 24.518 42.5843 24.6602 42.5023 24.8012L43.3665 25.3043ZM43.5843 23.6477C43.6077 20.4344 43.5969 17.2196 43.5969 14.0103H42.5969C42.5969 17.2241 42.6077 20.432 42.5844 23.6404L43.5843 23.6477ZM43.5969 14.0103C43.5969 13.2205 43.5291 12.5453 43.3659 11.9981C43.2017 11.4472 42.9294 10.9895 42.4969 10.6946C42.0633 10.399 41.5401 10.3158 40.9726 10.3714C40.41 10.4266 39.7685 10.6208 39.0503 10.922L39.4371 11.8442C40.1122 11.561 40.6489 11.4079 41.0701 11.3667C41.4863 11.3259 41.7522 11.3972 41.9336 11.5208C42.1162 11.6453 42.2847 11.8717 42.4076 12.2838C42.5315 12.6994 42.5969 13.2659 42.5969 14.0103H43.5969ZM23 8.5C23.1326 8.5 23.2598 8.55268 23.3536 8.64645L24.0607 7.93934C23.7794 7.65804 23.3978 7.5 23 7.5V8.5ZM23.3536 8.64645C23.4473 8.74021 23.5 8.86739 23.5 9H24.5C24.5 8.60218 24.342 8.22065 24.0607 7.93934L23.3536 8.64645ZM23.5 9C23.5 9.13261 23.4473 9.25979 23.3536 9.35355L24.0607 10.0607C24.342 9.77935 24.5 9.39782 24.5 9H23.5ZM23.3536 9.35355C23.2598 9.44732 23.1326 9.5 23 9.5V10.5C23.3978 10.5 23.7794 10.342 24.0607 10.0607L23.3536 9.35355ZM23 9.5C22.8674 9.5 22.7402 9.44732 22.6464 9.35355L21.9393 10.0607C22.2206 10.342 22.6022 10.5 23 10.5V9.5ZM22.6464 9.35355C22.5527 9.25978 22.5 9.13261 22.5 9H21.5C21.5 9.39783 21.658 9.77936 21.9393 10.0607L22.6464 9.35355ZM22.5 9C22.5 8.86739 22.5527 8.74022 22.6464 8.64645L21.9393 7.93934C21.658 8.22064 21.5 8.60217 21.5 9H22.5ZM22.6464 8.64645C22.7402 8.55268 22.8674 8.5 23 8.5V7.5C22.6022 7.5 22.2206 7.65804 21.9393 7.93934L22.6464 8.64645ZM18.2273 3.58922C18.8356 2.93049 19.5737 2.40481 20.3951 2.04526L19.9941 1.12918C19.0463 1.54408 18.1946 2.15067 17.4927 2.91078L18.2273 3.58922ZM20.3951 2.04526C21.2165 1.6857 22.1034 1.50005 23 1.5L23 0.5C21.9653 0.500063 20.9419 0.714284 19.9941 1.12918L20.3951 2.04526ZM23 1.5C26.2482 1.5 28.9802 3.92425 29.4351 7.07153L30.4249 6.92847C29.8998 3.29575 26.7518 0.5 23 0.5V1.5ZM29.93 7.5H32V6.5H29.93V7.5ZM31.5 7V9H32.5V7H31.5ZM32 8.5H26V9.5H32V8.5ZM26.5 9C26.5 8.07174 26.1313 7.1815 25.4749 6.52513L24.7678 7.23223C25.2366 7.70107 25.5 8.33696 25.5 9H26.5ZM25.4749 6.52513C24.8185 5.86875 23.9283 5.5 23 5.5V6.5C23.663 6.5 24.2989 6.76339 24.7678 7.23223L25.4749 6.52513ZM23 5.5C22.0717 5.5 21.1815 5.86875 20.5251 6.52513L21.2322 7.23223C21.7011 6.76339 22.337 6.5 23 6.5V5.5ZM20.5251 6.52513C19.8687 7.1815 19.5 8.07174 19.5 9H20.5C20.5 8.33696 20.7634 7.70107 21.2322 7.23223L20.5251 6.52513ZM20 8.5H12V9.5H20V8.5ZM12.5 9V7H11.5V9H12.5ZM12 7.5H12.05V6.5H12V7.5ZM12.5481 7.04388C12.7389 4.87764 13.5881 2.902 14.8868 1.31687L14.1132 0.683127C12.6919 2.418 11.7611 4.58236 11.5519 6.95612L12.5481 7.04388ZM14.2218 1.41545L17.5818 3.66545L18.1382 2.83455L14.7782 0.584546L14.2218 1.41545ZM17.0085 4.47474L15.3385 3.35474L14.7815 4.18526L16.4515 5.30526L17.0085 4.47474ZM14.6202 3.53215C14.0601 4.56781 13.6897 5.72092 13.5627 6.94855L14.5573 7.05145C14.6704 5.95908 14.9999 4.93219 15.4998 4.00785L14.6202 3.53215ZM14.06 7.5H16.07V6.5H14.06V7.5ZM16.5647 7.07256C16.6674 6.37258 16.8719 5.71497 17.1758 5.11635L16.2842 4.66365C15.9281 5.36503 15.6926 6.12742 15.5753 6.92744L16.5647 7.07256ZM17.7536 12.0464L16.3536 10.6464L15.6464 11.3536L17.0464 12.7536L17.7536 12.0464ZM16 11.5H21.79V10.5H16V11.5ZM21.3559 11.2481C21.684 11.8223 22.3188 12.2 23 12.2V11.2C22.6812 11.2 22.376 11.0177 22.2241 10.7519L21.3559 11.2481ZM23 12.2C23.6812 12.2 24.316 11.8223 24.6441 11.2481L23.7759 10.7519C23.624 11.0177 23.3188 11.2 23 11.2V12.2ZM24.21 11.5H30V10.5H24.21V11.5ZM29.5 11V12.4H30.5V11H29.5ZM30.26 11.9729C29.8255 11.7084 29.4462 11.5622 29.11 11.5421C28.7451 11.5204 28.4497 11.65 28.25 11.8782C28.0713 12.0824 28.0071 12.3222 27.9813 12.4737C27.9675 12.5547 27.9623 12.6254 27.9605 12.6769C27.9595 12.703 27.9594 12.7249 27.9596 12.7416C27.9598 12.75 27.9599 12.7572 27.9601 12.763C27.9602 12.7659 27.9603 12.7684 27.9604 12.7707C27.9605 12.7718 27.9605 12.7728 27.9606 12.7737C27.9606 12.7742 27.9606 12.7746 27.9606 12.7751C27.9606 12.7753 27.9607 12.7756 27.9607 12.7757C27.9607 12.776 27.9607 12.7763 28.46 12.75C28.9593 12.7237 28.9593 12.724 28.9593 12.7243C28.9593 12.7244 28.9594 12.7246 28.9594 12.7248C28.9594 12.7251 28.9594 12.7255 28.9594 12.7258C28.9594 12.7264 28.9595 12.7269 28.9595 12.7274C28.9595 12.7284 28.9596 12.7291 28.9596 12.7295C28.9596 12.7303 28.9596 12.7301 28.9596 12.729C28.9595 12.7267 28.9595 12.721 28.9598 12.7126C28.9604 12.6952 28.9623 12.6697 28.9671 12.6413C28.9786 12.5741 28.9974 12.5426 29.0025 12.5368C29.0026 12.5367 29.0013 12.5382 28.9986 12.5401C28.9958 12.5421 28.9934 12.5433 28.9924 12.5437C28.9889 12.5451 29.004 12.5376 29.0504 12.5404C29.1538 12.5465 29.3695 12.6016 29.74 12.8271L30.26 11.9729ZM27.96 12.75V14.71H28.96V12.75H27.96ZM28.1064 14.3564L26.1464 16.3164L26.8536 17.0236L28.8136 15.0636L28.1064 14.3564ZM26.9808 16.5326C26.8443 16.055 26.6631 15.6964 26.4233 15.4573C26.1648 15.1995 25.8599 15.1041 25.567 15.1308C25.3011 15.1551 25.0889 15.2756 24.9617 15.3646C24.8944 15.4117 24.8404 15.4574 24.8024 15.4922C24.7832 15.5097 24.7675 15.525 24.7557 15.5368C24.7498 15.5428 24.7448 15.5479 24.7408 15.5521C24.7388 15.5542 24.7371 15.5561 24.7356 15.5577C24.7348 15.5585 24.7341 15.5592 24.7335 15.5599C24.7331 15.5603 24.7328 15.5606 24.7326 15.5609C24.7324 15.5611 24.7322 15.5613 24.7321 15.5614C24.7319 15.5616 24.7317 15.5618 25.1 15.9C25.4683 16.2382 25.4681 16.2384 25.4679 16.2386C25.4678 16.2387 25.4676 16.2389 25.4675 16.239C25.4673 16.2393 25.4671 16.2395 25.4669 16.2397C25.4665 16.2402 25.4661 16.2406 25.4658 16.2409C25.4651 16.2416 25.4646 16.2421 25.4644 16.2424C25.4638 16.243 25.4639 16.2428 25.4647 16.242C25.4664 16.2404 25.4705 16.2362 25.4769 16.2304C25.4901 16.2184 25.5103 16.2013 25.5352 16.1838C25.5923 16.1438 25.6364 16.1286 25.658 16.1267C25.6639 16.1261 25.6652 16.1268 25.6666 16.1273C25.6681 16.1278 25.6859 16.1342 25.7173 16.1655C25.7869 16.2349 25.9057 16.41 26.0192 16.8074L26.9808 16.5326ZM24.7464 15.5464L23.3464 16.9464L24.0536 17.6536L25.4536 16.2536L24.7464 15.5464ZM23.7 16.8H20.9V17.8H23.7V16.8ZM21.3271 17.56C21.5916 17.1255 21.7378 16.7462 21.7579 16.41C21.7796 16.0451 21.65 15.7497 21.4218 15.55C21.2176 15.3713 20.9778 15.3071 20.8263 15.2813C20.7453 15.2675 20.6746 15.2623 20.6231 15.2605C20.597 15.2595 20.5751 15.2594 20.5584 15.2596C20.55 15.2598 20.5428 15.2599 20.537 15.2601C20.5341 15.2602 20.5316 15.2603 20.5293 15.2604C20.5282 15.2605 20.5272 15.2605 20.5263 15.2606C20.5258 15.2606 20.5254 15.2606 20.5249 15.2606C20.5247 15.2606 20.5244 15.2607 20.5243 15.2607C20.524 15.2607 20.5237 15.2607 20.55 15.76C20.5763 16.2593 20.576 16.2593 20.5757 16.2593C20.5756 16.2593 20.5754 16.2594 20.5752 16.2594C20.5749 16.2594 20.5745 16.2594 20.5742 16.2594C20.5736 16.2594 20.5731 16.2595 20.5726 16.2595C20.5716 16.2595 20.5709 16.2596 20.5705 16.2596C20.5697 16.2596 20.5699 16.2596 20.571 16.2596C20.5733 16.2595 20.579 16.2595 20.5874 16.2598C20.6048 16.2604 20.6303 16.2623 20.6587 16.2671C20.7259 16.2786 20.7574 16.2974 20.7632 16.3025C20.7633 16.3026 20.7618 16.3013 20.7599 16.2986C20.7579 16.2958 20.7567 16.2934 20.7563 16.2924C20.7549 16.2889 20.7624 16.304 20.7596 16.3504C20.7535 16.4538 20.6984 16.6695 20.4729 17.04L21.3271 17.56ZM20.55 15.26H18.59V16.26H20.55V15.26ZM18.9436 15.4064L16.9836 13.4464L16.2764 14.1536L18.2364 16.1136L18.9436 15.4064ZM16.7648 14.2815C17.2427 14.1477 17.6023 13.9679 17.8421 13.7281C18.1009 13.4693 18.1958 13.1636 18.1692 12.871C18.145 12.6052 18.0252 12.3925 17.9365 12.2647C17.8896 12.1971 17.8441 12.1429 17.8095 12.1046C17.792 12.0853 17.7768 12.0695 17.765 12.0577C17.7591 12.0517 17.754 12.0467 17.7498 12.0427C17.7478 12.0407 17.7459 12.0389 17.7443 12.0374C17.7435 12.0367 17.7428 12.036 17.7421 12.0353C17.7417 12.035 17.7414 12.0347 17.7411 12.0344C17.7409 12.0343 17.7407 12.0341 17.7407 12.034C17.7404 12.0338 17.7402 12.0336 17.4 12.4C17.0598 12.7664 17.0596 12.7662 17.0594 12.766C17.0593 12.766 17.0591 12.7658 17.059 12.7657C17.0587 12.7654 17.0585 12.7652 17.0583 12.765C17.0578 12.7646 17.0574 12.7642 17.0571 12.7639C17.0564 12.7633 17.0559 12.7628 17.0557 12.7625C17.0551 12.762 17.0553 12.7622 17.0561 12.763C17.0578 12.7647 17.062 12.769 17.0679 12.7755C17.0801 12.7889 17.0974 12.8096 17.115 12.835C17.1554 12.8931 17.1712 12.9386 17.1733 12.9615C17.1739 12.9682 17.1732 12.9697 17.1727 12.9712C17.1721 12.9726 17.1659 12.9901 17.135 13.021C17.0664 13.0896 16.8923 13.2073 16.4952 13.3185L16.7648 14.2815ZM9.43627 22.5205C9.05668 19.9552 9.26275 17.3865 9.31722 14.7231L8.31743 14.7027C8.2646 17.2859 8.05126 19.9922 8.44704 22.6669L9.43627 22.5205ZM9.31722 14.7232C9.32853 14.1723 9.296 13.6271 9.26882 13.1091C9.24126 12.5839 9.21884 12.0823 9.24281 11.5819L8.24395 11.5341C8.21731 12.0904 8.24271 12.6377 8.27019 13.1615C8.29806 13.6925 8.32782 14.1964 8.31743 14.7026L9.31722 14.7232ZM9.24281 11.582C9.28031 10.8014 9.13526 10.1286 8.72613 9.64697C8.30714 9.15372 7.69485 8.95749 7.01514 8.95749V9.95749C7.50873 9.95749 7.79497 10.0954 7.96398 10.2944C8.14285 10.5049 8.27527 10.8824 8.24396 11.534L9.24281 11.582ZM7.01514 8.95749C5.62348 8.95749 4.43681 10.2832 4.60961 11.7893L5.60309 11.6753C5.49503 10.7335 6.25005 9.95749 7.01514 9.95749V8.95749ZM4.6096 11.7893C4.77993 13.2739 4.78934 14.7663 4.77115 16.2817C4.75308 17.7882 4.70727 19.3284 4.77383 20.8636L5.77289 20.8202C5.7079 19.3213 5.75271 17.8246 5.77108 16.2937C5.78935 14.7717 5.78103 13.2263 5.60309 11.6753L4.6096 11.7893ZM4.77384 20.8637C4.77845 20.9692 4.77284 21.0775 4.76592 21.2173C4.75943 21.3483 4.75174 21.5084 4.76242 21.6736C4.78531 22.0278 4.89274 22.41 5.23102 22.7742L5.96371 22.0936C5.81471 21.9332 5.77179 21.7863 5.76034 21.6091C5.75384 21.5086 5.75798 21.4024 5.76469 21.2668C5.77097 21.14 5.77994 20.9815 5.77289 20.8201L4.77384 20.8637ZM5.23132 22.7745C6.50942 24.1481 7.59257 25.6823 8.72563 27.2388C9.85109 28.7848 11.0218 30.3468 12.4495 31.7126L13.1408 30.99C11.7845 29.6925 10.6598 28.1966 9.53411 26.6502C8.41601 25.1143 7.29226 23.5214 5.96341 22.0933L5.23132 22.7745ZM35.7087 22.6669C36.1045 19.9921 35.8914 17.286 35.8383 14.7026L34.8385 14.7232C34.8932 17.3864 35.0991 19.9552 34.7195 22.5205L35.7087 22.6669ZM35.8383 14.7026C35.8279 14.1964 35.8578 13.6925 35.8856 13.1615C35.9132 12.6377 35.9386 12.0904 35.9118 11.534L34.913 11.5821C34.937 12.0824 34.9146 12.5839 34.887 13.1091C34.8598 13.627 34.8272 14.1723 34.8385 14.7232L35.8383 14.7026ZM35.9118 11.5336C35.88 10.8823 36.0124 10.505 36.1913 10.2945C36.3606 10.0954 36.6472 9.95749 37.1409 9.95749V8.95749C36.4612 8.95749 35.8486 9.15369 35.4294 9.64683C35.0199 10.1286 34.8748 10.8016 34.913 11.5824L35.9118 11.5336ZM37.1409 9.95749C37.9057 9.95749 38.661 10.7335 38.5529 11.6753L39.5464 11.7893C39.7192 10.2832 38.5322 8.95749 37.1409 8.95749V9.95749ZM38.5529 11.6753C38.375 13.2263 38.3666 14.7717 38.3849 16.2937C38.4033 17.8246 38.4481 19.3213 38.3831 20.8202L39.3822 20.8636C39.4487 19.3284 39.4029 17.7882 39.3848 16.2817C39.3667 14.7663 39.3761 13.2739 39.5464 11.7893L38.5529 11.6753ZM38.3831 20.8201C38.376 20.9815 38.385 21.14 38.3913 21.2668C38.398 21.4024 38.4021 21.5086 38.3957 21.6091C38.3842 21.7863 38.3413 21.9332 38.1923 22.0936L38.925 22.7742C39.2633 22.41 39.3707 22.0278 39.3936 21.6736C39.4042 21.5084 39.3966 21.3483 39.3901 21.2173C39.3831 21.0775 39.3775 20.9692 39.3821 20.8637L38.3831 20.8201ZM38.1926 22.0933C36.8636 23.5214 35.7399 25.1143 34.6218 26.6502C33.4961 28.1966 32.3715 29.6925 31.0152 30.99L31.7065 31.7126C33.1342 30.3468 34.3049 28.7848 35.4303 27.2388C36.5633 25.6823 37.6465 24.1481 38.9247 22.7745L38.1926 22.0933ZM15.9918 27.8057C16.296 26.701 16.361 25.5962 16.3478 24.5198C16.3412 23.9819 16.3149 23.4455 16.2879 22.9193C16.2606 22.3901 16.2328 21.8726 16.2214 21.3578L15.2217 21.3799C15.2334 21.9125 15.2622 22.4466 15.2892 22.9706C15.3163 23.4977 15.3416 24.0161 15.3479 24.5321C15.3606 25.5637 15.2966 26.5635 15.0277 27.5402L15.9918 27.8057ZM16.2214 21.3578C16.2126 20.9581 16.1269 20.5877 15.9261 20.2797C15.7202 19.9639 15.4209 19.7565 15.0659 19.6433C14.3948 19.4294 13.5017 19.5445 12.4817 19.8361L12.7566 20.7976C13.7496 20.5137 14.3928 20.4783 14.7622 20.5961C14.9274 20.6488 15.0244 20.7277 15.0885 20.8259C15.1576 20.9319 15.2156 21.1032 15.2217 21.3799L16.2214 21.3578ZM31.7065 19.8468C30.4954 19.4074 29.4015 19.3219 28.6513 19.9042C27.8969 20.4898 27.7256 21.5655 27.8766 22.8293L28.8695 22.7107C28.7266 21.5141 28.9548 20.9345 29.2644 20.6942C29.5783 20.4506 30.2128 20.3687 31.3655 20.7868L31.7065 19.8468ZM27.8765 22.8293C27.9677 23.5923 27.899 24.3519 27.8714 25.2115C27.8446 26.0453 27.8606 26.9422 28.1742 27.8381L29.1181 27.5078C28.8684 26.7945 28.8449 26.0526 28.8709 25.2436C28.896 24.4604 28.9725 23.5731 28.8695 22.7107L27.8765 22.8293ZM12.3913 24.3347C12.7057 23.4327 12.7919 22.5279 12.8054 21.6526C12.8121 21.2155 12.8007 20.7792 12.789 20.3542C12.7773 19.9258 12.7652 19.5094 12.769 19.0954L11.7691 19.0862C11.7651 19.5221 11.7778 19.9579 11.7894 20.3816C11.8012 20.8088 11.8119 21.2246 11.8055 21.6372C11.7928 22.4612 11.7118 23.2462 11.447 24.0055L12.3913 24.3347ZM12.769 19.0952C12.773 18.6481 12.7515 18.1835 12.7427 17.7631C12.7336 17.3307 12.7367 16.9207 12.7832 16.5235L11.7899 16.4073C11.7354 16.8739 11.7336 17.3386 11.7429 17.784C11.7525 18.2414 11.7728 18.6576 11.7691 19.0864L12.769 19.0952ZM12.7832 16.5235C12.931 15.2593 12.7576 14.1838 12.003 13.5985C11.2522 13.0161 10.1586 13.1015 8.94707 13.5413L9.28828 14.4812C10.4409 14.0629 11.0756 14.1447 11.3901 14.3887C11.7009 14.6297 11.9299 15.2104 11.7899 16.4073L12.7832 16.5235ZM35.2096 13.5412C34.0006 13.1028 32.9202 13.0141 32.1742 13.5987C31.4325 14.1799 31.2508 15.2491 31.3571 16.5082L32.3536 16.424C32.2516 15.2166 32.4798 14.6297 32.791 14.3858C33.098 14.1453 33.7137 14.0625 34.8688 14.4813L35.2096 13.5412ZM31.3571 16.5082C31.5107 18.3285 31.4147 20.1685 31.3728 22.0568L32.3725 22.079C32.4136 20.2328 32.513 18.3135 32.3536 16.4241L31.3571 16.5082ZM31.3728 22.0567C31.3546 22.8683 31.5076 23.6137 31.7658 24.338L32.7077 24.0022C32.4817 23.368 32.3576 22.745 32.3725 22.0791L31.3728 22.0567Z" fill="black"/>
</svg>
